<svg xmlns="http://www.w3.org/2000/svg" width="150" height="50" viewBox="0,0,150,50"><path fill="#111" d="M60.55 30.86L60.51 30.82L60.55 30.86Q60.62 29.40 59.80 28.49L59.77 28.47L59.88 28.57Q59.07 27.67 57.62 27.71L57.63 27.72L57.49 27.57Q55.36 27.84 54.52 29.97L54.40 29.85L54.50 29.95Q54.09 30.60 54.05 31.29L54.17 31.41L54.11 31.35Q53.92 36.22 53.01 40.56L53.05 40.61L52.88 40.44Q51.23 41.00 49.37 41.99L49.43 42.05L49.49 42.11Q51.80 35.17 51.54 27.86L51.45 27.77L51.36 27.69Q51.14 20.39 48.59 13.57L48.52 13.50L48.53 13.51Q50.41 14.93 52.43 15.62L52.36 15.56L52.31 15.50Q53.90 21.43 54.09 27.30L54.12 27.33L53.95 27.15Q55.41 25.15 58.11 25.23L58.11 25.22L58.18 25.29Q63.27 25.39 63.38 30.76L63.29 30.67L63.30 30.68Q63.40 36.34 64.77 40.98L64.86 41.07L64.77 40.98Q62.93 40.17 61.18 39.98L61.33 40.13L61.22 40.03Q60.76 36.82 60.65 30.96ZM60.87 40.32L60.96 40.41L60.97 40.41Q61.91 40.44 63.01 40.71L63.04 40.74L63.07 40.77Q63.19 41.00 63.73 42.98L63.66 42.92L63.59 42.85Q66.68 43.92 68.70 45.36L68.70 45.37L68.62 45.29Q65.95 39.54 65.42 33.22L65.47 33.27L65.46 33.26Q65.13 29.54 63.73 27.98L63.62 27.88L63.76 28.01Q63.61 27.79 62.96 27.33L62.94 27.32L63.08 27.45Q62.80 26.91 62.16 26.15L62.18 26.17L62.15 26.07L62.11 26.03Q61.35 25.27 58.23 25.00L58.17 24.94L58.16 24.93Q57.39 24.88 55.98 25.22L55.93 25.18L55.92 25.17Q55.70 20.30 55.36 17.79L55.48 17.91L55.54 17.98Q54.64 17.72 53.16 17.42L53.12 17.38L53.17 17.43Q53.01 16.70 52.75 15.22L52.70 15.17L52.73 15.20Q49.81 14.25 47.94 12.69L48.01 12.76L47.93 12.68Q50.96 19.90 51.23 27.71L51.14 27.62L51.15 27.63Q51.40 35.37 48.85 42.72L48.95 42.83L48.88 42.75Q49.88 42.23 51.02 41.74L50.96 41.67L50.28 44.00L50.16 43.89Q53.45 42.72 55.43 42.53L55.36 42.46L55.33 42.43Q55.81 36.93 56.00 32.97L56.13 33.11L56.17 33.14Q56.22 31.25 58.16 30.14L58.24 30.22L58.11 30.10Q58.56 29.79 59.09 29.82L59.27 30.00L59.15 29.88Q59.37 29.95 59.71 29.99L59.68 29.95L60.19 30.12L60.11 30.04Q60.16 30.47 60.28 30.93L60.31 30.97L60.29 30.94Q60.49 37.01 60.98 40.43Z"/><path fill="#111" d="M25.29 24.99L25.28 24.99L25.47 25.17Q26.31 25.48 28.29 25.48L28.25 25.44L28.19 32.54L28.29 32.63Q28.28 36.86 28.40 39.75L28.30 39.65L28.42 39.77Q27.94 39.52 27.56 39.52L27.66 39.62L27.66 39.62Q26.13 39.53 24.68 40.87L24.84 41.02L24.83 41.02Q25.63 33.41 25.44 25.14ZM25.48 19.85L24.33 17.18L24.20 17.05Q25.79 16.05 26.52 15.10L26.42 15.01L26.60 15.19Q27.57 16.95 28.97 18.63L28.91 18.56L28.95 18.60Q28.25 20.22 26.88 22.35L26.75 22.22L26.92 22.39Q25.98 21.11 25.41 19.78L25.39 19.76ZM24.24 41.83L24.29 41.88L24.26 41.85Q25.32 40.82 26.58 40.33L26.49 40.24L26.46 40.21Q26.52 40.95 26.40 42.32L26.31 42.23L26.36 42.28Q26.99 41.99 27.63 41.99L27.64 42.00L27.62 41.98Q29.90 42.05 31.31 44.03L31.28 44.00L31.41 44.13Q29.99 36.62 30.06 26.45L30.09 26.48L30.21 26.60Q29.28 26.62 28.44 26.74L28.62 26.92L28.47 24.90L28.56 24.99Q27.59 25.16 26.80 25.09L26.66 24.95L26.69 24.98Q25.83 24.88 24.95 24.39L25.06 24.50L24.95 24.39Q25.15 26.49 25.15 28.55L25.19 28.59L25.10 28.49Q25.18 35.62 24.31 41.90ZM26.76 22.84L26.84 22.93L26.99 22.69L27.15 22.55L27.13 22.53Q27.54 23.32 28.57 24.81L28.48 24.72L28.53 24.76Q29.80 22.34 31.13 18.80L31.24 18.91L31.26 18.94Q30.30 18.08 28.73 16.48L28.67 16.41L28.84 16.58Q28.64 16.69 28.37 17.15L28.32 17.09L28.38 17.16Q27.47 15.94 26.56 14.50L26.48 14.42L26.51 14.44Q25.15 16.17 23.97 16.51L23.83 16.38L23.92 16.46Q25.06 19.96 26.89 22.97Z"/><path fill="#333" d="M83.31 29.63L83.26 29.59L83.37 29.70Q83.26 33.85 82.54 38.00L82.64 38.10L82.52 37.98Q84.82 37.46 87.90 37.35L87.97 37.41L87.86 37.31Q89.18 37.48 90.24 36.47L90.26 36.49L90.29 36.52Q91.44 35.60 91.44 34.27L91.31 34.14L91.47 34.29Q91.48 34.00 91.44 33.73L91.29 33.58L91.33 33.62Q91.25 30.77 89.01 29.93L88.94 29.86L89.04 29.96Q88.11 29.49 87.43 29.57L87.46 29.60L87.56 29.70Q86.47 29.60 85.44 29.64L85.41 29.60L85.44 29.64Q84.29 29.59 83.27 29.59ZM82.15 19.27L82.15 19.26L82.04 19.15Q83.00 22.55 83.26 26.92L83.21 26.87L83.15 26.81Q84.75 27.08 87.42 27.12L87.27 26.97L87.33 27.03Q90.31 27.12 90.65 23.58L90.66 23.59L90.61 23.54Q90.87 21.67 89.47 20.83L89.39 20.75L89.31 20.68Q88.46 20.21 84.05 19.56L84.09 19.61L84.05 19.57Q82.96 19.39 82.05 19.16ZM78.41 42.06L78.43 42.07L78.53 42.18Q80.94 35.45 80.67 28.07L80.71 28.10L80.65 28.04Q80.32 20.71 77.39 14.24L77.43 14.28L77.38 14.23Q81.15 16.74 87.37 16.99L87.39 17.00L87.39 17.00Q93.75 17.39 94.10 20.28L94.05 20.23L94.01 20.20Q94.35 22.98 92.94 25.64L92.94 25.64L92.91 25.61Q92.09 27.03 90.49 27.72L90.57 27.80L90.64 27.87Q94.30 28.56 94.53 33.93L94.45 33.85L94.38 33.78Q94.48 34.91 94.41 36.32L94.55 36.46L94.50 36.41Q94.47 37.75 93.54 38.69L93.57 38.72L93.54 38.68Q92.65 39.66 91.32 39.81L91.14 39.64L91.32 39.82Q89.84 39.90 88.78 39.90L88.78 39.90L88.81 39.94Q82.93 39.77 78.40 42.05ZM91.16 42.32L91.23 42.39L91.31 42.47Q92.22 42.51 94.09 42.62L94.04 42.57L94.10 42.63Q95.36 42.53 96.47 41.65L96.47 41.65L96.58 41.76Q97.46 40.93 97.34 39.37L97.17 39.20L97.31 39.33Q97.25 38.40 96.53 34.94L96.54 34.94L96.46 34.87Q95.75 31.61 93.89 30.13L93.89 30.13L93.50 29.32L93.53 29.35Q95.08 27.81 95.65 24.04L95.67 24.07L95.81 24.20Q95.82 22.92 95.75 21.52L95.84 21.61L95.84 21.61Q95.70 20.21 94.60 19.38L94.62 19.40L94.76 19.54Q94.41 19.30 94.30 19.26L94.18 19.15L94.18 19.15Q94.04 18.74 93.20 17.94L93.16 17.90L93.23 17.97Q91.58 16.78 87.35 16.59L87.38 16.61L87.40 16.64Q80.71 16.30 76.71 13.40L76.85 13.55L76.86 13.55Q79.98 20.41 80.29 27.95L80.31 27.97L80.30 27.95Q80.71 35.87 77.89 42.80L77.95 42.85L80.01 41.90L79.92 41.81Q79.58 43.00 79.08 44.14L79.07 44.12L79.14 44.20Q83.44 42.33 88.46 42.33L88.48 42.34L88.42 42.29Q89.83 42.29 91.28 42.44ZM89.08 31.83L89.12 31.86L89.10 31.85Q89.80 31.75 90.72 32.21L90.76 32.26L90.68 32.17Q90.78 32.50 90.93 33.56L91.08 33.71L90.93 33.57Q91.18 34.99 90.25 36.04L90.17 35.96L90.23 36.02Q89.37 37.14 87.96 37.03L87.90 36.96L86.46 37.12L86.36 37.03Q85.72 37.19 85.00 37.30L84.94 37.24L84.98 37.29Q85.21 35.38 85.28 31.91L85.27 31.90L85.29 31.93Q85.95 31.85 87.20 31.82L87.30 31.91L87.27 31.89Q88.46 31.78 89.07 31.81ZM88.01 22.20L88.14 22.32L88.39 22.19L88.53 22.33Q88.77 22.35 88.96 22.38L88.92 22.34L89.25 22.29L89.64 22.49L90.20 22.52L90.18 22.50Q90.28 22.75 90.28 23.05L90.19 22.96L90.24 23.55L90.29 23.59Q90.38 24.94 89.50 25.87L89.48 25.85L89.43 25.81Q88.61 26.79 87.39 26.79L87.23 26.63L87.29 26.68Q86.35 26.77 86.35 26.77L86.37 26.80L86.36 26.78Q84.94 26.66 85.28 26.66L85.24 26.62L85.31 26.69Q85.29 25.19 84.99 22.14L85.01 22.16L84.95 22.10Q86.59 22.30 88.12 22.30Z"/><path d="M8 29 C85 4,63 4,137 24" stroke="#666" fill="none"/><path fill="#222" d="M120.00 41.29L120.03 41.33L116.87 41.02L116.95 41.10Q114.48 40.92 113.68 40.80L113.74 40.86L113.73 40.85Q111.99 40.60 110.81 39.72L110.80 39.71L110.79 39.70Q109.39 38.18 109.16 34.83L109.30 34.97L109.25 34.92Q109.17 34.39 109.09 33.17L109.11 33.18L109.05 33.13Q109.12 32.78 109.04 31.67L109.08 31.71L109.06 31.69Q109.00 30.82 109.03 30.10L109.00 30.07L109.07 30.14Q109.25 28.19 110.28 27.43L110.28 27.42L110.35 27.49Q112.15 26.21 116.98 25.98L117.02 26.01L116.98 25.98Q119.08 25.95 119.88 25.95L119.92 25.99L119.86 25.93Q121.39 25.97 122.76 26.28L122.71 26.23L122.79 26.31Q122.09 27.43 121.55 29.26L121.66 29.37L121.54 29.25Q121.19 29.47 120.70 29.43L120.68 29.41L120.54 29.27Q120.55 29.35 120.01 29.24L119.96 29.19L118.95 28.90L118.91 28.86Q118.02 28.77 117.41 28.81L117.36 28.75L117.37 28.77Q112.63 28.83 112.02 31.64L112.02 31.64L112.01 31.63Q111.66 32.68 111.73 33.64L111.86 33.76L111.75 33.66Q111.93 36.27 113.16 37.35L113.20 37.39L113.12 37.30Q114.35 38.39 116.94 38.43L116.98 38.46L117.10 38.59Q118.43 38.47 119.16 38.17L119.16 38.17L120.18 37.67L120.33 37.82Q120.85 37.57 121.42 37.50L121.44 37.52L121.42 37.49Q121.61 39.25 121.99 40.55L122.01 40.56L121.90 40.45Q121.78 40.94 119.99 41.29ZM123.29 44.28L123.24 44.23L123.14 44.13Q123.60 44.25 124.44 44.32L124.36 44.25L124.50 44.38Q125.14 44.42 125.49 43.85L125.38 43.74L125.37 43.73Q124.27 41.76 123.78 39.67L123.73 39.62L123.73 39.62Q123.27 39.46 122.81 39.46L122.85 39.50L122.80 39.45Q122.47 39.54 122.09 39.73L122.01 39.65L122.10 39.74Q121.80 38.52 121.64 37.11L121.50 36.97L121.62 37.09Q120.89 36.90 119.68 37.47L119.82 37.61L119.87 37.66Q118.45 38.04 117.96 38.04L118.14 38.22L118.05 38.13Q117.61 38.18 117.00 38.14L117.07 38.21L116.90 38.04Q116.13 38.14 114.15 37.57L114.20 37.62L114.19 37.62Q113.82 36.86 113.85 35.72L113.80 35.66L113.74 35.61Q113.95 31.40 118.90 30.87L118.96 30.92L118.94 30.91Q119.62 30.90 120.99 31.24L121.02 31.28L121.00 31.25Q122.43 31.65 123.15 31.62L123.18 31.65L123.12 31.58Q123.55 29.35 124.23 27.52L124.24 27.53L124.15 27.44Q123.73 27.28 123.34 27.20L123.48 27.34L122.74 27.29L122.70 27.24Q122.84 26.69 123.22 25.82L123.22 25.82L123.21 25.82Q121.70 25.49 120.14 25.49L120.08 25.42L120.20 25.54Q117.83 25.57 113.45 25.95L113.43 25.93L113.28 25.78Q111.40 26.00 109.84 26.99L109.91 27.06L109.97 27.12Q108.65 27.97 108.65 29.87L108.68 29.89L108.65 29.87Q108.56 30.20 108.67 31.42L108.69 31.44L108.77 31.51Q108.93 32.62 108.89 33.23L108.84 33.18L108.80 33.14Q108.83 35.03 109.55 38.76L109.50 38.72L109.64 38.86Q109.95 39.62 110.45 40.12L110.43 40.10L110.77 40.44L110.67 40.31L110.75 40.38Q111.65 42.39 115.58 43.00L115.60 43.02L115.57 42.99Q118.80 43.56 121.47 43.83L121.39 43.75L121.46 43.82Q122.36 43.99 123.27 44.26Z"/></svg>